<mxfile host="app.diagrams.net" modified="2020-12-20T12:50:04.672Z" agent="5.0 (Windows NT 10.0; Win64; x64) AppleWebKit/537.36 (KHTML, like Gecko) Chrome/87.0.4280.88 Safari/537.36" etag="F3cbTLjmhXpFBCMmDd_c" version="14.1.1" type="github">
  <diagram id="gr_ul-Xu037tvehhmoQk" name="第 1 页">
    <mxGraphModel dx="1502" dy="675" grid="1" gridSize="10" guides="1" tooltips="1" connect="1" arrows="1" fold="1" page="1" pageScale="1" pageWidth="827" pageHeight="1169" math="0" shadow="0">
      <root>
        <mxCell id="0" />
        <mxCell id="1" parent="0" />
        <mxCell id="gff5xR_qLyKtmYOh1gRV-1" value="" style="rounded=0;whiteSpace=wrap;html=1;" vertex="1" parent="1">
          <mxGeometry x="750" y="420" width="540" height="220" as="geometry" />
        </mxCell>
        <mxCell id="gff5xR_qLyKtmYOh1gRV-9" style="edgeStyle=orthogonalEdgeStyle;rounded=0;orthogonalLoop=1;jettySize=auto;html=1;" edge="1" parent="1" source="gff5xR_qLyKtmYOh1gRV-2" target="gff5xR_qLyKtmYOh1gRV-6">
          <mxGeometry relative="1" as="geometry" />
        </mxCell>
        <mxCell id="gff5xR_qLyKtmYOh1gRV-18" style="edgeStyle=orthogonalEdgeStyle;rounded=0;orthogonalLoop=1;jettySize=auto;html=1;entryX=0;entryY=0.5;entryDx=0;entryDy=0;exitX=0.012;exitY=0.6;exitDx=0;exitDy=0;exitPerimeter=0;" edge="1" parent="1" source="gff5xR_qLyKtmYOh1gRV-2" target="gff5xR_qLyKtmYOh1gRV-6">
          <mxGeometry relative="1" as="geometry">
            <Array as="points">
              <mxPoint x="720" y="542" />
              <mxPoint x="720" y="215" />
            </Array>
          </mxGeometry>
        </mxCell>
        <mxCell id="gff5xR_qLyKtmYOh1gRV-2" value="consumer1&lt;br&gt;&lt;b&gt;leadCoordinator&lt;/b&gt;" style="rounded=0;whiteSpace=wrap;html=1;fillColor=#ffe6cc;strokeColor=#d79b00;" vertex="1" parent="1">
          <mxGeometry x="820" y="500" width="160" height="70" as="geometry" />
        </mxCell>
        <mxCell id="gff5xR_qLyKtmYOh1gRV-15" style="rounded=0;orthogonalLoop=1;jettySize=auto;html=1;entryX=0.5;entryY=1;entryDx=0;entryDy=0;" edge="1" parent="1" source="gff5xR_qLyKtmYOh1gRV-4" target="gff5xR_qLyKtmYOh1gRV-6">
          <mxGeometry relative="1" as="geometry" />
        </mxCell>
        <mxCell id="gff5xR_qLyKtmYOh1gRV-4" value="consumer2" style="rounded=0;whiteSpace=wrap;html=1;fillColor=#ffe6cc;strokeColor=#d79b00;" vertex="1" parent="1">
          <mxGeometry x="1100" y="500" width="160" height="70" as="geometry" />
        </mxCell>
        <mxCell id="gff5xR_qLyKtmYOh1gRV-5" value="&lt;b&gt;consumerGroup &lt;/b&gt;1&amp;nbsp;" style="text;html=1;strokeColor=none;fillColor=none;align=center;verticalAlign=middle;whiteSpace=wrap;rounded=0;" vertex="1" parent="1">
          <mxGeometry x="760" y="430" width="110" height="20" as="geometry" />
        </mxCell>
        <mxCell id="gff5xR_qLyKtmYOh1gRV-11" style="edgeStyle=orthogonalEdgeStyle;rounded=0;orthogonalLoop=1;jettySize=auto;html=1;" edge="1" parent="1" source="gff5xR_qLyKtmYOh1gRV-6" target="gff5xR_qLyKtmYOh1gRV-2">
          <mxGeometry relative="1" as="geometry" />
        </mxCell>
        <mxCell id="gff5xR_qLyKtmYOh1gRV-20" style="edgeStyle=orthogonalEdgeStyle;rounded=0;orthogonalLoop=1;jettySize=auto;html=1;entryX=1;entryY=0.5;entryDx=0;entryDy=0;" edge="1" parent="1" source="gff5xR_qLyKtmYOh1gRV-6" target="gff5xR_qLyKtmYOh1gRV-2">
          <mxGeometry relative="1" as="geometry">
            <Array as="points">
              <mxPoint x="1000" y="215" />
              <mxPoint x="1000" y="535" />
            </Array>
          </mxGeometry>
        </mxCell>
        <mxCell id="gff5xR_qLyKtmYOh1gRV-22" style="rounded=0;orthogonalLoop=1;jettySize=auto;html=1;exitX=1;exitY=0.5;exitDx=0;exitDy=0;" edge="1" parent="1" source="gff5xR_qLyKtmYOh1gRV-6" target="gff5xR_qLyKtmYOh1gRV-4">
          <mxGeometry relative="1" as="geometry" />
        </mxCell>
        <mxCell id="gff5xR_qLyKtmYOh1gRV-6" value="Kafka broker 0&lt;br&gt;GroupCordinator" style="rounded=0;whiteSpace=wrap;html=1;fillColor=#d5e8d4;strokeColor=#82b366;" vertex="1" parent="1">
          <mxGeometry x="820" y="180" width="160" height="70" as="geometry" />
        </mxCell>
        <mxCell id="gff5xR_qLyKtmYOh1gRV-7" value="Kafka broker 1" style="rounded=0;whiteSpace=wrap;html=1;fillColor=#d5e8d4;strokeColor=#82b366;" vertex="1" parent="1">
          <mxGeometry x="1040" y="180" width="160" height="70" as="geometry" />
        </mxCell>
        <mxCell id="gff5xR_qLyKtmYOh1gRV-8" value="Kafka broker 1" style="rounded=0;whiteSpace=wrap;html=1;fillColor=#d5e8d4;strokeColor=#82b366;" vertex="1" parent="1">
          <mxGeometry x="1260" y="180" width="160" height="70" as="geometry" />
        </mxCell>
        <mxCell id="gff5xR_qLyKtmYOh1gRV-10" value="1. 1 FindCordinatorRequest&lt;br&gt;消费者启动时，会向集群中节点&lt;br&gt;发送这个请求，发现组协调者" style="text;html=1;align=center;verticalAlign=middle;resizable=0;points=[];autosize=1;" vertex="1" parent="1">
          <mxGeometry x="790" y="300" width="180" height="50" as="geometry" />
        </mxCell>
        <mxCell id="gff5xR_qLyKtmYOh1gRV-16" value="2.1 JoinGropRequest" style="text;html=1;align=center;verticalAlign=middle;resizable=0;points=[];autosize=1;" vertex="1" parent="1">
          <mxGeometry x="945" y="360" width="130" height="20" as="geometry" />
        </mxCell>
        <mxCell id="gff5xR_qLyKtmYOh1gRV-17" value="2.2 选出leadCordinator" style="text;html=1;align=center;verticalAlign=middle;resizable=0;points=[];autosize=1;" vertex="1" parent="1">
          <mxGeometry x="820" y="160" width="140" height="20" as="geometry" />
        </mxCell>
        <mxCell id="gff5xR_qLyKtmYOh1gRV-19" value="3.1 SyncGroupRequest 发送分区方案" style="text;html=1;align=center;verticalAlign=middle;resizable=0;points=[];autosize=1;" vertex="1" parent="1">
          <mxGeometry x="580" y="360" width="220" height="20" as="geometry" />
        </mxCell>
        <mxCell id="gff5xR_qLyKtmYOh1gRV-23" value="3.2 下发分区方案" style="text;html=1;align=center;verticalAlign=middle;resizable=0;points=[];autosize=1;" vertex="1" parent="1">
          <mxGeometry x="990" y="290" width="110" height="20" as="geometry" />
        </mxCell>
        <mxCell id="gff5xR_qLyKtmYOh1gRV-25" value="1.2 选出gourpCordinator" style="text;html=1;align=center;verticalAlign=middle;resizable=0;points=[];autosize=1;" vertex="1" parent="1">
          <mxGeometry x="815" y="140" width="150" height="20" as="geometry" />
        </mxCell>
        <mxCell id="gff5xR_qLyKtmYOh1gRV-26" value="1.3 制定分区方案" style="text;html=1;align=center;verticalAlign=middle;resizable=0;points=[];autosize=1;" vertex="1" parent="1">
          <mxGeometry x="845" y="580" width="110" height="20" as="geometry" />
        </mxCell>
      </root>
    </mxGraphModel>
  </diagram>
</mxfile>
